<svg width="557" height="108" viewBox="0 0 557 108" fill="none" xmlns="http://www.w3.org/2000/svg">
<g clip-path="url(#clip0_336_290)">
<path fill-rule="evenodd" clip-rule="evenodd" d="M15.1075 7.64366C15.1075 3.42218 18.4894 0 22.6612 0L30.2149 0L45.3224 0L52.8761 0C57.0479 0 60.4299 3.42219 60.4299 7.64366V15.2873L45.3224 15.2873L30.2149 15.2873L15.1075 15.2873V7.64366ZM15.1075 45.8619H7.55373C3.38192 45.8619 0 42.4398 0 38.2183L0 30.5746L0 22.931C0 18.7095 3.38193 15.2873 7.55374 15.2873H15.1075L15.1075 30.5746L15.1075 45.8619ZM60.4299 61.1493L45.3224 61.1493H30.2149H22.6612C18.4894 61.1493 15.1075 57.7271 15.1075 53.5056L15.1075 45.8619L30.2149 45.8619H45.3224H52.8761C57.0479 45.8619 60.4299 49.2841 60.4299 53.5056V61.1493ZM60.4299 91.7239V76.4366L60.4299 61.1493L67.9836 61.1493C72.1554 61.1493 75.5373 64.5714 75.5373 68.7929V76.4366V84.0802C75.5373 88.3017 72.1554 91.7239 67.9836 91.7239H60.4299ZM15.1075 91.7239L15.1075 99.3676C15.1075 103.589 18.4894 107.011 22.6612 107.011H30.2149L45.3224 107.011H52.8761C57.0479 107.011 60.4299 103.589 60.4299 99.3676V91.7239H45.3224L30.2149 91.7239H15.1075ZM15.1075 91.7239H7.55373C3.38192 91.7239 0 88.3017 0 84.0802C0 79.8588 3.38192 76.4366 7.55373 76.4366C11.7255 76.4366 15.1075 79.8588 15.1075 84.0802V91.7239ZM60.4299 15.2873L67.9836 15.2873C72.1554 15.2873 75.5373 18.7095 75.5373 22.931C75.5373 27.1524 72.1554 30.5746 67.9836 30.5746C63.8118 30.5746 60.4299 27.1524 60.4299 22.931L60.4299 15.2873ZM30.2149 76.4366C30.2149 72.2151 33.5969 68.7929 37.7687 68.7929C41.9405 68.7929 45.3224 72.2151 45.3224 76.4366C45.3224 80.6581 41.9405 84.0802 37.7687 84.0802C33.5969 84.0802 30.2149 80.6581 30.2149 76.4366ZM45.3224 30.5746C45.3224 26.3532 41.9405 22.931 37.7687 22.931C33.5969 22.931 30.2149 26.3532 30.2149 30.5746C30.2149 34.7961 33.5969 38.2183 37.7687 38.2183C41.9405 38.2183 45.3224 34.7961 45.3224 30.5746Z" fill="#FF4D00"/>
<path d="M528.299 45.5914V38.9373H531.029C533.673 38.9373 535.635 36.7192 535.635 33.648V28.0176H542.119V38.9373H551.503V45.5914H542.119V70.3314C542.119 73.4878 544.422 75.6206 547.92 75.6206C549.114 75.6206 550.479 75.45 551.503 75.1087L551.674 81.9335C550.309 82.3601 548.517 82.616 546.896 82.616C539.986 82.616 535.294 78.2652 535.294 71.6963V45.5914H528.299Z" fill="white"/>
<path d="M529.295 66.919C527.759 76.1325 519.57 82.616 509.674 82.616C497.986 82.616 488.688 73.6585 488.688 60.2648C488.688 47.1271 497.73 37.9136 509.333 37.9136C518.973 37.9136 526.906 44.2265 528.613 52.9281L521.105 55.3168C520.423 49.1745 515.56 44.5678 509.333 44.5678C501.825 44.5678 496.024 51.0513 496.024 60.2648C496.024 69.6489 501.825 75.7912 509.333 75.7912C515.816 75.7912 520.935 71.3551 521.447 64.5303L529.295 66.919Z" fill="white"/>
<path d="M466.845 82.616C454.56 82.616 446.029 73.3172 446.029 60.4354C446.029 47.383 454.56 37.9136 466.504 37.9136C478.788 37.9136 486.637 47.8095 486.637 61.4591C486.637 61.8004 486.637 62.2269 486.552 62.9094H453.537C454.56 70.502 459.85 75.7912 466.845 75.7912C472.475 75.7912 477.594 72.2082 478.618 67.2602L486.296 69.6489C484.419 77.1562 476.4 82.616 466.845 82.616ZM453.707 56.2552H479.3C477.935 48.748 472.305 44.5678 466.162 44.5678C459.85 44.5678 454.987 49.2598 453.707 56.2552Z" fill="white"/>
<path d="M435.469 56.1699C435.469 49.5157 431.118 44.7384 424.72 44.7384C417.639 44.7384 411.753 50.6248 411.753 58.7292V81.5923H404.928V38.9373H410.729L411.667 46.7858C413.885 41.4966 418.919 37.9136 425.743 37.9136C435.383 37.9136 442.294 45.3355 442.294 55.6581V81.5923H435.469V56.1699Z" fill="white"/>
<path d="M391.977 56.1699C391.977 49.5157 387.626 44.7384 381.227 44.7384C374.147 44.7384 368.26 50.6248 368.26 58.7292V81.5923H361.436V38.9373H367.237L368.175 46.7858C370.393 41.4966 375.426 37.9136 382.251 37.9136C391.891 37.9136 398.801 45.3355 398.801 55.6581V81.5923H391.977V56.1699Z" fill="white"/>
<path d="M335.634 82.616C323.264 82.616 314.307 73.2319 314.307 60.2648C314.307 47.2977 323.264 37.9136 335.634 37.9136C348.004 37.9136 356.962 47.2977 356.962 60.2648C356.962 73.2319 348.004 82.616 335.634 82.616ZM321.473 60.2648C321.473 69.3077 327.444 75.7912 335.634 75.7912C343.824 75.7912 349.796 69.3077 349.796 60.2648C349.796 51.1366 343.824 44.5678 335.634 44.5678C327.444 44.5678 321.473 51.1366 321.473 60.2648Z" fill="white"/>
<path d="M311.928 62.483C309.881 74.597 300.155 82.6162 287.53 82.6162C272.003 82.6162 260.742 70.5021 260.742 53.8667C260.742 37.2312 271.747 25.1172 287.018 25.1172C299.046 25.1172 309.198 33.051 311.246 44.056L303.397 46.7859C302.032 38.2549 295.122 32.1126 287.018 32.1126C276.269 32.1126 268.42 41.2408 268.42 53.8667C268.42 66.4073 276.439 75.4501 287.53 75.4501C296.316 75.4501 302.885 69.3078 303.909 60.0943L311.928 62.483Z" fill="white"/>
<path d="M216.4 66.919C216.741 72.2935 221.945 76.1325 227.831 76.1325C232.609 76.1325 236.192 73.5732 236.192 69.9902C236.192 60.2648 210.94 64.445 210.94 49.5157C210.94 42.0085 217.68 37.9136 226.125 37.9136C234.912 37.9136 241.396 42.7762 242.334 49.5157L235.168 51.3926C234.997 47.2124 231.073 44.2265 226.125 44.2265C221.86 44.2265 218.277 46.4446 218.277 49.857C218.277 59.0705 243.699 55.0609 243.699 69.9902C243.699 77.4974 237.045 82.616 227.32 82.616C217.168 82.616 209.49 76.9003 208.893 68.9664L216.4 66.919Z" fill="white"/>
<path d="M184.529 45.5914V38.9373H187.259C189.904 38.9373 191.866 36.7192 191.866 33.648V28.0176H198.35V38.9373H207.734V45.5914H198.35V70.3314C198.35 73.4878 200.653 75.6206 204.151 75.6206C205.345 75.6206 206.71 75.45 207.734 75.1087L207.904 81.9335C206.539 82.3601 204.748 82.616 203.127 82.616C196.217 82.616 191.525 78.2652 191.525 71.6963V45.5914H184.529Z" fill="white"/>
<path d="M176.637 61.1179C176.04 61.3738 174.931 61.5445 173.737 61.8004L162.476 63.8478C158.381 64.6156 156.333 67.1749 156.333 70.3314C156.333 73.6585 159.063 75.9619 163.841 75.9619C170.921 75.9619 176.637 70.6726 176.637 63.8478V61.1179ZM148.826 70.3314C148.826 64.1891 152.921 59.8383 160.77 58.388L173.907 55.9993C175.528 55.7434 176.637 54.805 176.637 53.6106V53.2694C176.637 47.8949 172.713 44.0559 167.253 44.0559C161.623 44.0559 157.869 48.3214 157.698 54.2931L150.191 53.0988C151.044 44.3118 157.954 37.9136 167.083 37.9136C176.296 37.9136 183.462 43.9706 183.462 53.2694V73.0613L183.633 81.5923H178.002L176.893 74.5969C174.419 79.5449 169.301 82.616 162.476 82.616C154.286 82.616 148.826 77.4974 148.826 70.3314Z" fill="white"/>
<path d="M111.958 62.1417C112.299 69.9903 118.356 75.6207 126.802 75.6207C133.627 75.6207 138.916 71.8671 138.916 66.5779C138.916 53.3548 106.498 57.9616 106.498 39.9611C106.498 30.9183 114.688 25.1172 125.096 25.1172C135.674 25.1172 143.693 31.0889 144.717 39.9611L136.868 42.1792C136.186 36.3781 131.92 31.942 125.096 31.942C119.295 31.942 114.176 35.0132 114.176 39.6199C114.176 51.478 146.764 47.7244 146.764 66.5779C146.764 76.0473 138.66 82.6162 126.631 82.6162C114.091 82.6162 104.792 75.1089 104.109 64.1892L111.958 62.1417Z" fill="white"/>
</g>
<defs>
<clipPath id="clip0_336_290">
<rect width="556.039" height="107.011" fill="white"/>
</clipPath>
</defs>
</svg>
